<svg xmlns="http://www.w3.org/2000/svg" width="169" height="60" viewBox="0 0 169 60" fill="none"><g clip-path="url(#clip0_69_1228)"><path d="M168.868 26.2538H0.0552597V39.4742H168.868V26.2538Z" fill="#273E8E"></path><path d="M0 0.542244H11.8356V4.55171H4.09774V8.44522H11.8356V12.3821H4.09774V18.0455H11.8356V22.0712H0V0.542244Z" fill="#E4262C"></path><path d="M15.5351 0.542244H19.6763V14.4647C19.6763 15.6628 19.7819 16.5118 19.9933 17.0082C20.2047 17.5055 20.5536 17.9031 21.0399 18.2008C21.5262 18.4973 22.1133 18.647 22.8012 18.647C23.5286 18.647 24.1547 18.4806 24.6808 18.1493C25.2061 17.8182 25.5701 17.3966 25.7713 16.8852C25.9725 16.3727 26.0734 15.3957 26.0734 13.9525V0.542244H30.2154V13.3776C30.2154 15.5433 30.0919 17.0466 29.8466 17.8851C29.601 18.725 29.1316 19.535 28.4392 20.3149C27.746 21.0948 26.9476 21.6734 26.0439 22.0486C25.1398 22.4247 24.088 22.6123 22.8897 22.6123C21.3174 22.6123 19.9491 22.2538 18.7849 21.5373C17.6203 20.8196 16.7876 19.922 16.2865 18.8444C15.7854 17.7657 15.5351 15.9435 15.5351 13.3775V0.542244Z" fill="#E4262C"></path><path d="M35.2854 0.54212H39.658C42.0529 0.54212 43.7583 0.754041 44.7741 1.17886C45.7898 1.60332 46.6068 2.3087 47.2255 3.29391C47.8435 4.27936 48.1527 5.44547 48.1527 6.79091C48.1527 8.20645 47.8111 9.389 47.1284 10.3405C46.4453 11.2921 45.4167 12.0116 44.0412 12.4999L49.1777 22.071H44.6659L39.7906 12.953H39.4126V22.071H35.2854V0.54212ZM39.4124 8.95768H40.7057C42.0183 8.95768 42.922 8.78608 43.4169 8.44362C43.9114 8.10117 44.1583 7.5338 44.1583 6.74078C44.1583 6.27036 44.036 5.86159 43.7915 5.51473C43.5459 5.16639 43.2181 4.9172 42.8066 4.76534C42.3951 4.61311 41.6409 4.53785 40.5442 4.53785H39.4124V8.95768Z" fill="#E4262C"></path><path d="M62.7515 0.00012207C65.8194 0.00012207 68.4569 1.10312 70.6646 3.30874C72.872 5.51252 73.9758 8.20155 73.9758 11.3722C73.9758 14.5428 72.8864 17.1733 70.7085 19.3483C68.5305 21.5241 65.8882 22.6122 62.7812 22.6122C59.6742 22.6122 56.8228 21.4953 54.6691 19.2607C52.516 17.0267 51.4394 14.373 51.4394 11.2998C51.4394 9.24118 51.9409 7.347 52.9436 5.62075C53.9466 3.89412 55.3257 2.52503 57.0808 1.51531C58.8357 0.505595 60.7262 0.00012207 62.7515 0.00012207ZM62.7073 4.01044C60.7008 4.01044 59.0136 4.70344 57.6467 6.0892C56.2794 7.47386 55.5955 9.23554 55.5955 11.3722C55.5955 13.7535 56.4564 15.6364 58.178 17.0211C59.5155 18.1055 61.0498 18.6467 62.7813 18.6467C64.7383 18.6467 66.4058 17.9432 67.7828 16.5388C69.16 15.1337 69.8487 13.4018 69.8487 11.3424C69.8487 9.28297 69.1548 7.56003 67.7682 6.13958C66.3813 4.7206 64.6943 4.01044 62.7073 4.01044Z" fill="#E4262C"></path><path d="M98.1942 5.53773L96.4854 6.84027C95.5418 5.62047 94.4093 4.69581 93.0874 4.06617C91.7655 3.43728 90.3141 3.12276 88.7322 3.12276C87.0022 3.12276 85.4012 3.53533 83.9272 4.35899C82.4535 5.18412 81.3113 6.29153 80.5007 7.68182C79.69 9.072 79.284 10.6357 79.284 12.3725C79.284 14.9971 80.1908 17.187 82.0034 18.9432C83.8164 20.7001 86.1033 21.5782 88.8654 21.5782C91.9013 21.5782 94.441 20.3979 96.4854 18.0364L98.1942 19.3236C97.1137 20.69 95.7654 21.746 94.1489 22.4928C92.532 23.2392 90.7268 23.6122 88.7322 23.6122C84.9391 23.6122 81.9471 22.3592 79.7558 19.851C77.9182 17.7338 77 15.1771 77 12.1818C77 9.0302 78.1124 6.37917 80.3381 4.2276C82.5636 2.07689 85.3518 1 88.7032 1C90.7268 1 92.5546 1.39761 94.1861 2.19369C95.8171 2.98929 97.1535 4.10356 98.1942 5.53773Z" fill="#273E8E"></path><path d="M102.54 0.542244H104.707V9.57175H115.747V0.542244H117.913V22.0712H115.747V11.6804H104.707V22.0712H102.54V0.542244Z" fill="#273E8E"></path><path d="M132.048 0.542244L142.16 22.0712H139.819L136.408 14.9872H127.068L123.692 22.0712H121.274L131.518 0.542244H132.048ZM131.774 5.11613L128.059 12.9092H135.472L131.774 5.11613Z" fill="#273E8E"></path><path d="M144.533 22.071L147.637 0.54212H147.988L156.803 18.2073L165.532 0.54212H165.879L169 22.071H166.875L164.732 6.67447L157.066 22.071H156.512L148.755 6.55778L146.625 22.071H144.533Z" fill="#273E8E"></path><path d="M16.3197 45.7314L14.0892 47.8629C12.5716 46.2559 10.8651 45.4517 8.96834 45.4517C7.36746 45.4517 6.01879 46.0005 4.92269 47.0975C3.82621 48.1948 3.27865 49.5478 3.27865 51.1566C3.27865 52.276 3.5212 53.2709 4.00715 54.1384C4.49224 55.0079 5.17868 55.689 6.06647 56.1855C6.9545 56.6806 7.94045 56.9285 9.02531 56.9285C9.95063 56.9285 10.7966 56.7551 11.563 56.4079C12.3287 56.0606 13.171 55.4298 14.0892 54.5155L16.2512 56.7772C15.0134 57.9884 13.8441 58.828 12.7432 59.2966C11.6423 59.765 10.386 60.0001 8.97323 60.0001C6.36892 60.0001 4.23673 59.1717 2.57766 57.5166C0.919082 55.8612 0.0893631 53.7394 0.0893631 51.1508C0.0893631 49.4752 0.467364 47.988 1.22263 46.6854C1.97827 45.3825 3.05982 44.3376 4.4684 43.5446C5.87698 42.7534 7.39424 42.3576 9.01895 42.3576C10.4004 42.3576 11.7312 42.6504 13.0111 43.2349C14.2902 43.8206 15.3933 44.6528 16.3197 45.7315" fill="#273E8E"></path><path d="M30.0524 42.7796H33.287L39.7305 59.5764H36.4163L35.1055 56.1163H28.2687L26.9059 59.5764H23.5917L30.0523 42.7796H30.0524ZM31.6893 47.2337L29.4417 53.0002H33.9238L31.6893 47.2337Z" fill="#273E8E"></path><path d="M49.6529 42.7794H52.7607L56.6441 54.4951L60.5632 42.7794H63.6687L66.4788 59.5763H63.3953L61.5982 48.9696L58.0396 59.5763H55.2292L51.7014 48.9696L49.862 59.5763H46.7528L49.6529 42.7794Z" fill="#273E8E"></path><path d="M74.8502 59.5764V42.7795H77.4844C79.0124 42.7795 80.13 42.8779 80.8372 43.076C81.8403 43.3427 82.6387 43.8372 83.2318 44.5613C83.8244 45.2838 84.1214 46.1365 84.1214 47.1179C84.1214 47.758 83.9863 48.3385 83.717 48.8606C83.4473 49.3818 83.0086 49.8703 82.4018 50.3276C83.4186 50.8074 84.1627 51.4063 84.6337 52.1267C85.1048 52.8451 85.3402 53.6959 85.3402 54.6777C85.3402 55.6595 85.0969 56.4824 84.6099 57.2586C84.1236 58.0349 83.4963 58.6153 82.7284 58.9998C81.9613 59.3841 80.9009 59.5762 79.5478 59.5762H74.8503L74.8502 59.5764ZM78.039 45.8285V49.3688H78.7366C79.5142 49.3688 80.0916 49.2043 80.4685 48.8779C80.8458 48.5493 81.0348 48.1053 81.0348 47.5414C81.0348 47.0154 80.8551 46.5992 80.4971 46.2914C80.1392 45.9837 79.5942 45.8285 78.8627 45.8285H78.039ZM78.039 52.2239V56.5292H78.8382C80.163 56.5292 81.0559 56.3613 81.5169 56.0252C81.9772 55.691 82.2078 55.2039 82.2078 54.5637C82.2078 53.8419 81.9377 53.2709 81.3968 52.8508C80.8562 52.433 79.9576 52.2238 78.7016 52.2238H78.039V52.2239Z" fill="#273E8E"></path><path d="M102.123 42.3575C104.493 42.3575 106.531 43.218 108.237 44.9384C109.942 46.6588 110.795 48.7569 110.795 51.2289C110.795 53.7008 109.954 55.7566 108.271 57.453C106.588 59.151 104.546 60 102.145 60C99.7436 60 97.541 59.1287 95.8772 57.3855C94.213 55.6409 93.3811 53.5714 93.3811 51.1733C93.3811 49.5664 93.7691 48.0904 94.5433 46.7431C95.3186 45.3958 96.3842 44.3267 97.7407 43.5389C99.0961 42.7515 100.557 42.3576 102.123 42.3576M102.088 45.4852C100.538 45.4852 99.2338 46.0264 98.1776 47.107C97.121 48.1892 96.5926 49.5629 96.5926 51.2289C96.5926 53.088 97.2581 54.5565 98.5879 55.6372C99.6217 56.4824 100.808 56.9061 102.145 56.9061C103.658 56.9061 104.947 56.357 106.011 55.26C107.075 54.1649 107.606 52.8134 107.606 51.2068C107.606 49.6002 107.07 48.2547 105.999 47.1481C104.928 46.0391 103.624 45.4852 102.088 45.4852Z" fill="#273E8E"></path><path d="M119.645 42.7792H123.424C125.858 42.7792 127.668 43.0817 128.851 43.6883C130.035 44.2926 131.009 45.2762 131.776 46.6386C132.542 48.0026 132.926 49.5928 132.926 51.4124C132.926 52.7074 132.711 53.8958 132.282 54.9802C131.854 56.066 131.262 56.9658 130.507 57.6823C129.752 58.397 128.935 58.8916 128.055 59.1658C127.175 59.44 125.65 59.5765 123.48 59.5765H119.645V42.7792H119.645ZM122.811 45.8622V56.46H124.292C125.75 56.46 126.807 56.2922 127.463 55.9565C128.121 55.6222 128.658 55.0568 129.075 54.2653C129.493 53.4722 129.702 52.4965 129.702 51.3397C129.702 49.5552 129.205 48.1724 128.21 47.1891C127.314 46.3047 125.875 45.8623 123.892 45.8623H122.811L122.811 45.8622Z" fill="#273E8E"></path><path d="M144.736 42.7795H141.57V59.5763H144.736V42.7795Z" fill="#273E8E"></path><path d="M159.267 42.7796H162.501L168.944 59.5764H165.631L164.32 56.1163H157.483L156.12 59.5764H152.806L159.267 42.7796H159.267ZM160.903 47.2337L158.657 53.0002H163.139L160.903 47.2337Z" fill="#273E8E"></path><path d="M5.91989 36.2775L8.13252 29.4518L10.3454 36.2775L4.55227 32.0579H11.7112L5.91989 36.2775Z" fill="#F4EA12"></path><path d="M33.6758 36.2775L35.8884 29.4518L38.1014 36.2775L32.3085 32.0579H39.4672L33.6758 36.2775Z" fill="#F4EA12"></path><path d="M19.7975 36.2775L22.01 29.4518L24.223 36.2775L18.4308 32.0579H25.5899L19.7975 36.2775Z" fill="#F4EA12"></path><path d="M47.5534 36.2775L49.766 29.4518L51.9789 36.2775L46.1872 32.0579H53.3461L47.5534 36.2775Z" fill="#F4EA12"></path><path d="M75.3099 36.2775L77.5225 29.4518L79.735 36.2775L73.9437 32.0579H81.1023L75.3099 36.2775Z" fill="#F4EA12"></path><path d="M61.4323 36.2775L63.6449 29.4518L65.8579 36.2775L60.0647 32.0579H67.2237L61.4323 36.2775Z" fill="#F4EA12"></path><path d="M89.1875 36.2775L91.3996 29.4518L93.613 36.2775L87.8212 32.0579H94.9806L89.1875 36.2775Z" fill="#F4EA12"></path><path d="M116.944 36.2775L119.155 29.4518L121.369 36.2775L115.578 32.0579H122.737L116.944 36.2775Z" fill="#F4EA12"></path><path d="M103.066 36.2775L105.279 29.4518L107.491 36.2775L101.698 32.0579H108.857L103.066 36.2775Z" fill="#F4EA12"></path><path d="M130.821 36.2775L133.034 29.4518L135.246 36.2775L129.454 32.0579H136.615L130.821 36.2775Z" fill="#F4EA12"></path><path d="M158.578 36.2775L160.791 29.4518L163.003 36.2775L157.212 32.0579H164.371L158.578 36.2775Z" fill="#F4EA12"></path><path d="M144.701 36.2775L146.913 29.4518L149.125 36.2775L143.334 32.0579H150.493L144.701 36.2775Z" fill="#F4EA12"></path></g><defs><clipPath id="clip0_69_1228"><rect width="169" height="60" fill="white"></rect></clipPath></defs></svg>